<svg width="64" height="64" viewBox="0 0 64 64" fill="none" xmlns="http://www.w3.org/2000/svg">
<path d="M0.812502 44.144C0.662039 44.1741 0.526622 44.0686 0.406251 43.8274C0.28588 43.556 0.150463 43.2997 0 43.0585H0.496529C0.28588 42.3951 0.225695 41.792 0.315973 41.2493C0.436344 40.6763 0.571761 40.1336 0.722224 39.621C0.872688 39.0782 0.993058 38.5656 1.08334 38.0832C1.20371 37.5706 1.15857 37.0429 0.947919 36.5001C1.09838 36.5906 1.20371 36.5604 1.26389 36.4097C1.35417 36.2287 1.41436 36.0177 1.44445 35.7764C1.50463 35.5051 1.51968 35.2337 1.48959 34.9623C1.48959 34.6608 1.47454 34.4195 1.44445 34.2386C1.83565 33.3039 2.13658 32.339 2.34723 31.3439C2.58797 30.3489 2.79862 29.3689 2.97918 28.404C3.15973 27.4089 3.35533 26.4591 3.56598 25.5545C3.80672 24.6197 4.10765 23.7453 4.46876 22.9312C4.89006 22.8708 5.3264 22.9312 5.77779 23.1121C6.25928 23.2628 6.57525 23.4588 6.72571 23.7001C7.65859 22.9764 8.48614 22.1019 9.20836 21.0767C9.93058 20.0515 10.6528 19.0565 11.375 18.0916C12.1273 17.0965 12.9699 16.2221 13.9028 15.4682C14.8357 14.7144 15.9943 14.2621 17.3785 14.1113C18.1007 14.6239 18.9132 15.1818 19.816 15.7848C20.7188 16.3577 21.4561 17.0814 22.0278 17.9559C22.2686 18.1066 22.4943 18.2725 22.7049 18.4534C22.9457 18.6042 23.1864 18.7549 23.4272 18.9057V19.5841C23.8484 19.9761 24.1945 20.4435 24.4653 20.9863C24.7663 21.4989 25.0221 22.0567 25.2327 22.6598C25.4735 23.2327 25.6991 23.8207 25.9098 24.4237C26.1204 25.0268 26.3612 25.5846 26.632 26.0972C26.5718 26.2782 26.5417 26.444 26.5417 26.5948C26.5718 26.7154 26.6019 26.8511 26.632 27.0018C26.6922 27.1225 26.7373 27.2732 26.7674 27.4541C26.7975 27.6049 26.8126 27.8009 26.8126 28.0421C26.6922 29.6403 26.1656 30.9368 25.2327 31.9319C24.3299 32.8968 23.2165 33.6959 21.8924 34.3291C20.5984 34.9321 19.2142 35.4598 17.7396 35.9121C16.2651 36.3343 14.926 36.8017 13.7223 37.3143C13.7223 37.4349 13.7824 37.4952 13.9028 37.4952C14.0533 37.4952 14.0984 37.5856 14.0382 37.7666C14.941 38.3093 15.6331 38.7465 16.1146 39.0782C16.6262 39.4099 17.0926 39.6964 17.5139 39.9376C17.9653 40.1487 18.4468 40.3296 18.9584 40.4803C19.5001 40.6311 20.2373 40.812 21.1702 41.0231C22.1031 41.2342 22.8253 41.4151 23.3369 41.5659C23.8785 41.6865 24.36 41.792 24.7813 41.8825C25.2026 41.9428 25.654 42.0031 26.1355 42.0634C26.617 42.1237 27.264 42.1991 28.0765 42.2895C28.4075 42.6212 28.6783 43.0132 28.889 43.4655C29.0996 43.9178 29.2501 44.3701 29.3404 44.8224C29.4306 45.2747 29.4457 45.7119 29.3855 46.1341C29.3554 46.5261 29.235 46.8427 29.0244 47.0839C29.0545 47.2045 29.1297 47.2648 29.2501 47.2648C29.4005 47.2347 29.551 47.2347 29.7015 47.2648C29.4908 47.4156 29.3103 47.5965 29.1598 47.8076C29.0093 48.0187 28.8589 48.2297 28.7084 48.4408C28.558 48.6519 28.3774 48.8479 28.1667 49.0288C27.9862 49.2097 27.7455 49.3153 27.4445 49.3454C26.3612 49.7675 24.9769 49.7826 23.2917 49.3906C21.6065 48.9986 19.4549 48.3051 16.8369 47.3101C15.5429 46.8276 14.4896 46.3904 13.6771 45.9984C12.8646 45.6064 12.1574 45.2295 11.5556 44.8676C10.9537 44.4757 10.397 44.0686 9.88545 43.6464C9.37387 43.1941 8.78706 42.6665 8.12502 42.0634C8.03475 42.0935 7.97456 42.1539 7.94447 42.2443C7.94447 42.3348 7.89933 42.3951 7.80905 42.4252C7.65859 43.6314 7.41785 44.6113 7.08683 45.3652C6.7859 46.119 6.33451 46.8879 5.73266 47.6719C5.25117 47.5814 4.92015 47.6267 4.7396 47.8076C4.58913 47.9885 4.39353 48.1544 4.15279 48.3051C3.85186 48.3654 3.62617 48.3503 3.4757 48.2599C3.32524 48.1996 3.18982 48.1242 3.06945 48.0337C2.94908 47.9433 2.81367 47.8528 2.6632 47.7624C2.51274 47.6719 2.272 47.6417 1.94098 47.6719C1.8507 47.4005 1.76042 47.1442 1.67014 46.903C1.57987 46.6316 1.33912 46.511 0.947919 46.5412C1.0382 46.2698 1.06829 46.0436 1.0382 45.8627C1.0081 45.6516 0.962966 45.4707 0.90278 45.3199C0.842595 45.139 0.78241 44.9581 0.722224 44.7772C0.692132 44.5963 0.722224 44.3852 0.812502 44.144ZM15.8889 23.4739C15.4977 24.0468 15.0614 24.5745 14.5799 25.057C14.0984 25.5093 13.6169 25.9917 13.1355 26.5043C12.6841 26.9868 12.2778 27.5295 11.9167 28.1326C11.5556 28.7055 11.2998 29.399 11.1493 30.2132C12.4132 30.0624 13.7373 29.7156 15.1216 29.1729C16.5058 28.6 17.8149 28.0572 19.0487 27.5446C18.8982 26.4289 18.507 25.5394 17.8751 24.876C17.2431 24.1825 16.5811 23.7151 15.8889 23.4739Z" fill="black"/>
<path d="M29.0244 22.5241C28.9943 22.2829 28.9341 22.0718 28.8438 21.8909C28.7836 21.6798 28.7084 21.4536 28.6181 21.2124C28.4677 20.8506 28.3323 20.4586 28.2119 20.0364C28.0915 19.6143 28.0313 19.1168 28.0313 18.5439C28.0915 18.2423 28.1667 18.0313 28.257 17.9106C28.3473 17.7599 28.4376 17.6393 28.5279 17.5488L28.7084 16.7347H29.3855C29.6262 16.7648 29.867 16.7799 30.1077 16.7799C30.3786 16.7799 30.6343 16.7799 30.8751 16.7799C32.0186 16.7799 33.1922 16.7347 34.3959 16.6442C35.5996 16.5537 36.8334 16.4482 38.0973 16.3276C39.4816 16.1467 40.9712 16.011 42.5661 15.9205C42.7166 15.5888 42.8068 15.3778 42.8369 15.2873C42.8971 15.1968 42.9573 15.0913 43.0175 14.9707L43.514 14.6993C44.2061 14.6692 44.6876 14.7596 44.9585 14.9707C45.2293 15.1516 45.4399 15.3325 45.5904 15.5135C46.3728 15.4531 47.1703 15.3778 47.9828 15.2873C48.7953 15.1667 49.6379 15.0461 50.5106 14.9255C51.7143 14.7747 52.933 14.6239 54.1668 14.4732C55.4006 14.3224 56.6043 14.247 57.7779 14.247C58.2895 14.247 58.771 14.2621 59.2224 14.2922C59.6738 14.3224 60.1101 14.3676 60.5314 14.4279L61.0731 14.835C61.1935 15.0461 61.3439 15.2421 61.5245 15.423C61.705 15.6039 61.9157 15.7848 62.1564 15.9658C62.6078 16.3276 63.0442 16.7799 63.4655 17.3226C63.9169 17.8654 64.0824 18.6645 63.962 19.7198L63.7363 20.1721C63.6159 20.2927 63.4655 20.4134 63.2849 20.534L62.8335 21.122H62.337C62.0361 21.122 61.8104 21.1521 61.6599 21.2124C61.5094 21.2426 61.3289 21.3029 61.1182 21.3933C60.9979 21.4536 60.8624 21.514 60.712 21.5743C60.5615 21.6044 60.396 21.6496 60.2155 21.7099C59.8844 21.6798 59.6286 21.6647 59.4481 21.6647C59.2675 21.6647 59.0569 21.6647 58.8161 21.6647C57.9134 21.6647 56.9353 21.725 55.8821 21.8456C54.8289 21.9663 53.8057 22.1019 52.8127 22.2527C52.0904 22.3432 51.3983 22.4336 50.7363 22.5241C50.0742 22.5844 49.4724 22.6447 48.9307 22.705C48.6298 23.489 48.3589 24.1825 48.1182 24.7856C47.8775 25.3886 47.6217 25.9917 47.3508 26.5948C47.08 27.1978 46.8242 27.816 46.5835 28.4492C46.3427 29.0523 46.117 29.7307 45.9064 30.4845C45.5453 31.0273 45.2443 31.555 45.0036 32.0676C44.7629 32.55 44.5673 33.1079 44.4168 33.7411C43.9654 34.2537 43.6344 34.8115 43.4237 35.4146C43.2432 36.0177 43.0777 36.5303 42.9272 36.9524L42.7467 37.6309C42.536 37.8419 42.4006 38.0078 42.3404 38.1284C42.3103 38.249 42.2351 38.3847 42.1147 38.5355C42.0244 38.9275 41.9041 39.3044 41.7536 39.6662C41.6934 39.817 41.6332 39.9828 41.573 40.1637C41.5129 40.3145 41.4978 40.4351 41.5279 40.5256C41.4677 40.8573 41.3774 41.1136 41.2571 41.2945C41.2571 41.4754 41.242 41.6563 41.2119 41.8372C41.1818 42.0182 41.1517 42.1991 41.1216 42.38C41.0615 42.5911 41.0163 42.7871 40.9862 42.968C40.9561 43.1188 40.9712 43.2695 41.0314 43.4203C41.1216 43.5409 41.2119 43.6615 41.3022 43.7821C41.3925 43.9027 41.4677 44.0535 41.5279 44.2344C41.5881 44.2947 41.6633 44.34 41.7536 44.3701C41.8439 44.4003 41.9191 44.4455 41.9793 44.5058C42.22 44.7169 42.4457 44.8375 42.6564 44.8676L43.1078 45.4104C43.2883 46.4959 43.1228 47.3402 42.6112 47.9433C42.0696 48.6368 41.1668 48.9836 39.9029 48.9836L39.2709 48.9383C39.0603 48.7273 38.9399 48.5916 38.9098 48.5313C38.639 48.4107 38.4133 48.3051 38.2327 48.2147C38.0522 48.1544 37.8867 48.0187 37.7362 47.8076C37.676 47.7473 37.6008 47.7171 37.5105 47.7171C37.4202 47.687 37.345 47.6417 37.2848 47.5814C36.9839 47.491 36.7432 47.3854 36.5626 47.2648L36.0661 46.9935C36.0962 46.6919 36.1112 46.4808 36.1112 46.3602C35.8705 46.0285 35.6749 45.6667 35.5244 45.2747C35.404 44.8827 35.2987 44.4757 35.2084 44.0535C35.1182 43.7218 35.0279 43.4203 34.9376 43.1489C34.8774 42.8775 34.7721 42.6363 34.6216 42.4252C34.5614 40.3145 34.757 38.5505 35.2084 37.1333C35.6598 35.686 36.1564 34.2839 36.698 32.927C36.999 32.2033 37.2848 31.4645 37.5557 30.7107C37.8265 29.9569 38.0672 29.188 38.2779 28.404L38.7744 27.9064C38.9851 27.7255 39.1205 27.62 39.1807 27.5898C39.1807 27.1978 39.2559 26.8209 39.4064 26.4591C39.5568 26.0671 39.7223 25.6751 39.9029 25.2831C40.0233 25.0419 40.1286 24.8007 40.2189 24.5594C40.3392 24.3182 40.4145 24.1071 40.4446 23.9262C40.2339 23.9262 40.0383 23.9413 39.8578 23.9714C39.7073 23.9714 39.5418 23.9865 39.3612 24.0167C38.97 24.1071 38.5939 24.1524 38.2327 24.1524C37.9619 24.1524 37.7663 24.1373 37.6459 24.1071C37.4052 24.2277 37.1795 24.3031 36.9689 24.3333C36.7582 24.3333 36.5476 24.3333 36.3369 24.3333H35.2536C34.8925 24.3333 34.6066 24.3785 34.3959 24.469C33.9746 24.469 33.7038 24.469 33.5834 24.469C33.4631 24.469 33.3276 24.469 33.1772 24.469H32.0938C31.8531 24.469 31.5823 24.4539 31.2813 24.4237C30.9804 24.3634 30.6644 24.2428 30.3334 24.0619L30.0174 23.7001C29.8369 23.3684 29.6714 23.1875 29.5209 23.1573L29.0244 23.0216V22.5241Z" fill="black"/>
</svg>
